<svg id="svg" version="1.1" xmlns="http://www.w3.org/2000/svg" xmlns:xlink="http://www.w3.org/1999/xlink" width="400" height="400" viewBox="0, 0, 400,400"><g id="svgg"><path id="path0" d="M357.075 187.458 C 356.924 187.610,356.800 203.543,356.800 222.867 C 356.800 246.022,356.664 258.000,356.400 258.000 C 356.180 258.000,356.000 257.764,356.000 257.475 C 356.000 257.187,355.685 256.602,355.300 256.175 C 354.915 255.748,354.069 254.679,353.421 253.800 C 352.185 252.123,351.478 251.423,349.249 249.665 C 348.505 249.079,347.361 248.105,346.706 247.500 C 346.051 246.895,345.304 246.400,345.046 246.400 C 344.788 246.400,344.317 246.040,344.000 245.600 C 343.683 245.160,343.103 244.800,342.712 244.800 C 342.320 244.800,342.000 244.620,342.000 244.400 C 342.000 244.180,341.730 244.000,341.400 244.000 C 341.070 244.000,340.800 243.846,340.800 243.657 C 340.800 243.469,339.630 242.794,338.201 242.157 C 336.771 241.521,335.601 240.865,335.601 240.700 C 335.600 240.535,335.150 240.400,334.600 240.400 C 334.050 240.400,333.600 240.220,333.600 240.000 C 333.600 239.780,333.251 239.600,332.824 239.600 C 332.397 239.600,331.946 239.437,331.823 239.237 C 331.700 239.038,330.699 238.751,329.600 238.600 C 328.500 238.449,327.600 238.162,327.600 237.962 C 327.600 237.763,326.880 237.600,326.000 237.600 C 325.120 237.600,324.400 237.420,324.400 237.200 C 324.400 236.980,323.590 236.800,322.600 236.800 C 321.610 236.800,320.800 236.620,320.800 236.400 C 320.800 236.179,319.760 236.000,318.480 236.000 C 317.204 236.000,315.989 235.838,315.780 235.640 C 314.641 234.562,290.551 234.559,289.420 235.638 C 289.211 235.837,288.097 236.000,286.944 236.000 C 285.791 236.000,284.736 236.180,284.600 236.400 C 284.464 236.620,283.564 236.800,282.600 236.800 C 281.636 236.800,280.736 236.980,280.600 237.200 C 280.464 237.420,279.733 237.600,278.976 237.600 C 278.219 237.600,277.600 237.759,277.600 237.953 C 277.600 238.148,276.430 238.432,275.000 238.585 C 273.570 238.738,272.400 239.029,272.400 239.232 C 272.400 239.434,271.950 239.600,271.400 239.600 C 270.850 239.600,270.400 239.780,270.400 240.000 C 270.400 240.220,269.860 240.400,269.200 240.400 C 268.540 240.400,268.000 240.580,268.000 240.800 C 268.000 241.020,267.640 241.200,267.200 241.200 C 266.760 241.200,266.400 241.380,266.400 241.600 C 266.400 241.820,266.041 242.000,265.603 242.000 C 264.617 242.000,261.600 243.277,261.600 243.694 C 261.600 243.862,261.255 244.000,260.833 244.000 C 260.412 244.000,260.007 244.135,259.933 244.300 C 259.767 244.675,257.820 245.855,256.083 246.634 C 255.358 246.959,254.664 247.490,254.540 247.813 C 254.416 248.136,254.013 248.400,253.646 248.400 C 253.278 248.400,252.717 248.760,252.400 249.200 C 252.083 249.640,251.611 250.000,251.352 250.000 C 250.627 250.000,241.200 259.560,241.200 260.295 C 241.200 260.476,240.840 260.883,240.400 261.200 C 239.960 261.517,239.600 261.930,239.600 262.117 C 239.600 262.304,239.330 262.727,239.000 263.057 C 238.670 263.387,238.400 264.004,238.400 264.429 C 238.400 264.853,238.220 265.200,238.000 265.200 C 237.780 265.200,237.600 265.470,237.600 265.800 C 237.600 266.130,237.420 266.400,237.200 266.400 C 236.980 266.400,236.800 266.760,236.800 267.200 C 236.800 267.640,236.620 268.000,236.400 268.000 C 236.180 268.000,236.000 268.360,236.000 268.800 C 236.000 269.240,235.847 269.600,235.661 269.600 C 235.241 269.600,234.000 273.353,234.000 274.622 C 234.000 275.134,233.820 275.664,233.600 275.800 C 233.380 275.936,233.200 276.667,233.200 277.424 C 233.200 278.181,233.020 278.800,232.800 278.800 C 232.580 278.800,232.400 279.779,232.400 280.976 C 232.400 282.173,232.220 283.264,232.000 283.400 C 231.757 283.550,231.600 286.530,231.600 291.000 C 231.600 295.470,231.757 298.450,232.000 298.600 C 232.220 298.736,232.400 299.917,232.400 301.224 C 232.400 302.541,232.578 303.600,232.800 303.600 C 233.020 303.600,233.200 304.230,233.200 305.000 C 233.200 305.770,233.355 306.400,233.544 306.400 C 233.734 306.400,233.994 307.286,234.122 308.369 C 234.250 309.453,234.533 310.668,234.751 311.069 C 234.969 311.471,235.383 312.385,235.671 313.100 C 235.960 313.815,236.331 314.400,236.498 314.400 C 236.664 314.400,236.800 314.760,236.800 315.200 C 236.800 315.640,236.980 316.000,237.200 316.000 C 237.420 316.000,237.600 316.360,237.600 316.800 C 237.600 317.240,237.780 317.600,238.000 317.600 C 238.220 317.600,238.400 317.857,238.400 318.171 C 238.400 318.486,238.625 318.981,238.900 319.271 C 239.175 319.562,239.655 320.295,239.968 320.900 C 240.280 321.505,240.685 322.000,240.868 322.000 C 241.050 322.000,241.200 322.193,241.200 322.429 C 241.200 322.664,241.425 323.094,241.700 323.384 C 241.975 323.674,242.560 324.420,243.000 325.042 C 244.049 326.524,249.498 331.978,250.951 333.000 C 251.577 333.440,252.326 334.025,252.616 334.300 C 252.906 334.575,253.386 334.800,253.683 334.800 C 253.980 334.800,254.483 335.160,254.800 335.600 C 255.117 336.040,255.607 336.400,255.888 336.400 C 256.170 336.400,256.400 336.562,256.400 336.760 C 256.400 336.959,257.209 337.454,258.199 337.860 C 259.188 338.267,259.998 338.735,259.999 338.900 C 259.999 339.065,260.360 339.200,260.800 339.200 C 261.240 339.200,261.600 339.346,261.600 339.525 C 261.600 339.704,262.230 340.098,263.000 340.400 C 263.770 340.702,264.400 341.080,264.400 341.239 C 264.400 341.399,265.119 341.651,265.998 341.800 C 266.877 341.948,267.697 342.234,267.822 342.435 C 267.946 342.636,268.397 342.800,268.824 342.800 C 269.251 342.800,269.600 342.980,269.600 343.200 C 269.600 343.420,270.050 343.600,270.600 343.600 C 271.150 343.600,271.600 343.780,271.600 344.000 C 271.600 344.220,272.140 344.400,272.800 344.400 C 273.460 344.400,274.000 344.580,274.000 344.800 C 274.000 345.020,274.619 345.200,275.376 345.200 C 276.133 345.200,276.858 345.370,276.986 345.577 C 277.114 345.784,278.478 346.078,280.018 346.229 C 281.558 346.381,282.914 346.661,283.032 346.853 C 283.151 347.044,284.126 347.200,285.200 347.200 C 286.274 347.200,287.264 347.380,287.400 347.600 C 287.536 347.820,289.246 348.000,291.200 348.000 C 293.154 348.000,294.864 348.180,295.000 348.400 C 295.330 348.934,306.670 348.934,307.000 348.400 C 307.138 348.177,309.004 348.000,311.224 348.000 C 313.608 348.000,315.200 347.840,315.200 347.600 C 315.200 347.380,316.179 347.200,317.376 347.200 C 318.573 347.200,319.651 347.041,319.771 346.848 C 319.890 346.654,321.341 346.368,322.994 346.213 C 324.647 346.058,326.000 345.767,326.000 345.566 C 326.000 345.365,326.452 345.200,327.005 345.200 C 327.558 345.200,328.368 345.020,328.805 344.800 C 329.242 344.580,329.958 344.220,330.395 344.000 C 330.832 343.780,331.552 343.600,331.995 343.600 C 332.438 343.600,332.800 343.420,332.800 343.200 C 332.800 342.980,333.042 342.800,333.339 342.800 C 333.930 342.800,336.035 341.886,337.600 340.949 C 338.150 340.620,338.915 340.251,339.300 340.129 C 339.685 340.007,340.000 339.748,340.000 339.553 C 340.000 339.359,340.360 339.200,340.800 339.200 C 341.240 339.200,341.600 339.020,341.600 338.800 C 341.600 338.580,341.831 338.400,342.113 338.400 C 342.655 338.400,344.329 337.206,345.898 335.700 C 346.414 335.205,347.016 334.800,347.235 334.800 C 347.645 334.800,348.474 334.195,349.319 333.279 C 349.584 332.992,351.015 331.538,352.500 330.047 C 353.985 328.557,355.200 327.036,355.200 326.668 C 355.200 326.301,355.380 326.000,355.600 326.000 C 355.822 326.000,356.000 327.059,356.000 328.376 C 356.000 329.683,356.180 330.864,356.400 331.000 C 356.623 331.138,356.800 333.004,356.800 335.224 C 356.800 337.608,356.960 339.200,357.200 339.200 C 357.420 339.200,357.600 340.010,357.600 341.000 C 357.600 341.990,357.780 342.800,358.000 342.800 C 358.220 342.800,358.403 343.295,358.406 343.900 C 358.418 346.010,358.484 346.027,366.429 345.909 L 373.800 345.800 373.673 344.600 C 373.603 343.940,373.378 343.229,373.173 343.020 C 372.968 342.811,372.800 342.226,372.800 341.720 C 372.800 341.214,372.620 340.800,372.400 340.800 C 372.180 340.800,372.000 340.170,372.000 339.400 C 372.000 338.630,371.820 338.000,371.600 338.000 C 371.359 338.000,371.200 336.341,371.200 333.824 C 371.200 331.471,371.025 329.539,370.800 329.400 C 370.536 329.237,370.400 306.137,370.400 261.400 C 370.400 216.663,370.536 193.563,370.800 193.400 C 371.020 193.264,371.200 192.870,371.200 192.523 C 371.200 192.177,371.572 191.571,372.026 191.177 C 372.648 190.638,372.821 190.083,372.726 188.931 L 372.600 187.400 364.975 187.292 C 360.781 187.232,357.226 187.307,357.075 187.458 M307.000 247.200 C 307.136 247.420,308.846 247.600,310.800 247.600 C 312.754 247.600,314.464 247.780,314.600 248.000 C 314.736 248.220,315.726 248.400,316.800 248.400 C 317.874 248.400,318.864 248.580,319.000 248.800 C 319.136 249.020,319.856 249.200,320.600 249.200 C 321.344 249.200,322.051 249.359,322.171 249.553 C 322.291 249.748,323.382 250.030,324.595 250.182 C 325.808 250.334,326.800 250.625,326.800 250.829 C 326.800 251.033,327.340 251.200,328.000 251.200 C 328.660 251.200,329.200 251.380,329.200 251.600 C 329.200 251.820,329.560 252.000,330.000 252.000 C 330.440 252.000,330.800 252.180,330.800 252.400 C 330.800 252.620,331.072 252.800,331.405 252.800 C 331.738 252.800,332.323 252.954,332.705 253.141 C 333.087 253.329,334.075 253.807,334.900 254.204 C 335.725 254.601,336.400 255.078,336.400 255.263 C 336.400 255.448,336.745 255.600,337.167 255.600 C 337.588 255.600,337.993 255.738,338.067 255.907 C 338.140 256.076,339.190 256.930,340.400 257.805 C 342.311 259.188,343.942 260.575,345.631 262.255 C 346.915 263.533,348.000 264.790,348.000 265.000 C 348.000 265.130,348.411 265.647,348.913 266.149 C 349.415 266.652,350.450 268.309,351.213 269.831 C 351.976 271.354,352.735 272.660,352.900 272.733 C 353.065 272.807,353.200 273.212,353.200 273.633 C 353.200 274.055,353.357 274.400,353.548 274.400 C 353.740 274.400,354.015 275.293,354.160 276.384 C 354.305 277.475,354.598 278.475,354.812 278.607 C 355.025 278.739,355.200 279.546,355.200 280.400 C 355.200 281.254,355.380 282.064,355.600 282.200 C 355.821 282.336,356.000 284.130,356.000 286.200 C 356.000 288.270,356.179 290.064,356.400 290.200 C 356.620 290.336,356.800 290.876,356.800 291.400 C 356.800 291.924,356.620 292.464,356.400 292.600 C 356.180 292.736,356.000 294.446,356.000 296.400 C 356.000 298.354,355.820 300.064,355.600 300.200 C 355.380 300.336,355.200 301.146,355.200 302.000 C 355.200 302.854,355.037 303.654,354.837 303.777 C 354.638 303.900,354.351 304.900,354.200 306.000 C 354.049 307.100,353.762 308.100,353.563 308.223 C 353.363 308.346,353.200 308.887,353.200 309.424 C 353.200 309.961,353.020 310.400,352.800 310.400 C 352.580 310.400,352.400 310.670,352.400 311.000 C 352.400 311.330,352.220 311.600,352.000 311.600 C 351.780 311.600,351.600 311.945,351.600 312.367 C 351.600 312.788,351.465 313.193,351.300 313.267 C 351.135 313.340,350.640 314.120,350.200 315.000 C 349.760 315.880,349.040 316.973,348.600 317.428 C 348.160 317.883,347.440 318.768,347.000 319.393 C 346.560 320.019,345.592 321.086,344.849 321.765 C 344.106 322.444,343.128 323.405,342.677 323.900 C 342.225 324.395,341.684 324.800,341.475 324.800 C 341.265 324.800,340.803 325.134,340.447 325.543 C 340.091 325.951,339.395 326.413,338.900 326.570 C 338.405 326.726,338.000 327.022,338.000 327.227 C 338.000 327.432,337.764 327.600,337.475 327.600 C 337.187 327.600,336.564 327.960,336.092 328.400 C 335.620 328.840,335.046 329.200,334.817 329.200 C 334.588 329.200,334.400 329.335,334.400 329.500 C 334.400 329.665,333.230 330.153,331.800 330.585 C 330.370 331.017,329.200 331.512,329.200 331.685 C 329.200 331.858,328.750 332.000,328.200 332.000 C 327.650 332.000,327.200 332.180,327.200 332.400 C 327.200 332.620,326.660 332.800,326.000 332.800 C 325.340 332.800,324.800 332.980,324.800 333.200 C 324.800 333.420,324.260 333.600,323.600 333.600 C 322.940 333.600,322.400 333.763,322.400 333.963 C 322.400 334.162,320.690 334.454,318.600 334.610 C 316.510 334.767,314.800 335.054,314.800 335.248 C 314.800 335.708,292.114 335.709,291.830 335.248 C 291.710 335.054,289.899 334.768,287.806 334.611 C 285.713 334.454,284.000 334.162,284.000 333.963 C 284.000 333.763,283.381 333.600,282.624 333.600 C 281.867 333.600,281.136 333.420,281.000 333.200 C 280.864 332.980,280.133 332.800,279.376 332.800 C 278.619 332.800,278.000 332.620,278.000 332.400 C 278.000 332.180,277.550 332.000,277.000 332.000 C 276.450 332.000,276.000 331.858,276.000 331.685 C 276.000 331.512,274.830 331.017,273.400 330.585 C 271.970 330.153,270.800 329.699,270.800 329.575 C 270.800 329.451,270.170 329.102,269.400 328.800 C 268.630 328.498,268.000 328.104,268.000 327.925 C 268.000 327.746,267.640 327.600,267.200 327.600 C 266.760 327.600,266.400 327.423,266.400 327.208 C 266.400 326.992,265.950 326.702,265.400 326.564 C 264.850 326.426,264.400 326.183,264.400 326.024 C 264.400 325.865,263.934 325.486,263.364 325.181 C 262.794 324.876,261.701 324.035,260.935 323.313 C 260.170 322.591,259.286 322.000,258.972 322.000 C 258.657 322.000,258.400 321.839,258.400 321.642 C 258.400 321.446,257.905 320.735,257.300 320.063 C 256.695 319.391,255.728 318.313,255.151 317.668 C 254.574 317.023,253.770 315.934,253.365 315.248 C 252.959 314.561,252.486 314.000,252.314 314.000 C 252.141 314.000,252.000 313.764,252.000 313.475 C 252.000 313.187,251.636 312.560,251.192 312.083 C 250.747 311.606,250.274 310.668,250.140 309.999 C 250.006 309.331,249.740 308.686,249.548 308.568 C 249.357 308.450,249.200 308.003,249.200 307.576 C 249.200 307.149,249.020 306.800,248.800 306.800 C 248.580 306.800,248.400 306.361,248.400 305.824 C 248.400 305.287,248.220 304.736,248.000 304.600 C 247.780 304.464,247.600 303.913,247.600 303.376 C 247.600 302.839,247.420 302.400,247.200 302.400 C 246.980 302.400,246.800 301.626,246.800 300.680 C 246.800 299.734,246.610 298.770,246.378 298.538 C 245.799 297.959,245.796 282.444,246.374 281.866 C 246.608 281.632,246.800 280.846,246.800 280.120 C 246.800 279.394,246.980 278.800,247.200 278.800 C 247.420 278.800,247.600 278.170,247.600 277.400 C 247.600 276.630,247.780 276.000,248.000 276.000 C 248.220 276.000,248.400 275.761,248.400 275.468 C 248.400 275.175,248.849 274.050,249.398 272.968 C 249.947 271.886,250.397 270.775,250.398 270.500 C 250.399 270.225,250.580 270.000,250.800 270.000 C 251.020 270.000,251.200 269.770,251.200 269.488 C 251.200 269.207,251.560 268.717,252.000 268.400 C 252.440 268.083,252.800 267.617,252.800 267.364 C 252.800 266.717,259.173 260.319,260.501 259.632 C 261.106 259.320,261.600 258.920,261.600 258.743 C 261.600 258.566,262.185 258.121,262.900 257.754 C 263.615 257.388,264.290 256.978,264.400 256.844 C 264.510 256.709,265.140 256.329,265.800 256.000 C 266.460 255.671,267.090 255.302,267.200 255.180 C 267.587 254.752,270.328 253.600,270.960 253.600 C 271.312 253.600,271.600 253.420,271.600 253.200 C 271.600 252.980,271.949 252.800,272.376 252.800 C 272.803 252.800,273.264 252.620,273.400 252.400 C 273.536 252.180,273.997 252.000,274.424 252.000 C 274.851 252.000,275.200 251.820,275.200 251.600 C 275.200 251.380,275.740 251.200,276.400 251.200 C 277.060 251.200,277.600 251.038,277.600 250.839 C 277.600 250.641,278.680 250.353,280.001 250.200 C 281.321 250.047,282.502 249.759,282.624 249.561 C 282.747 249.362,283.557 249.200,284.424 249.200 C 285.291 249.200,286.000 249.020,286.000 248.800 C 286.000 248.580,286.990 248.400,288.200 248.400 C 289.410 248.400,290.400 248.220,290.400 248.000 C 290.400 247.762,291.925 247.600,294.176 247.600 C 296.263 247.600,298.063 247.421,298.200 247.200 C 298.339 246.975,300.263 246.800,302.600 246.800 C 304.937 246.800,306.861 246.975,307.000 247.200 " stroke="none" fill="#fcfcfc" fill-rule="evenodd"></path><path id="path1" d="M25.475 14.659 C 25.324 14.810,25.200 50.453,25.200 93.867 L 25.200 172.800 30.200 172.800 C 34.933 172.800,35.200 172.757,35.200 172.000 C 35.200 171.560,35.363 171.200,35.561 171.200 C 35.760 171.200,36.030 170.300,36.161 169.200 C 36.293 168.100,36.507 166.300,36.639 165.200 C 36.770 164.100,37.021 163.200,37.196 163.200 C 37.372 163.200,37.643 161.580,37.800 159.600 C 37.957 157.620,38.246 156.000,38.442 156.000 C 38.639 156.000,38.800 155.190,38.800 154.200 C 38.800 153.210,38.980 152.400,39.200 152.400 C 39.420 152.400,39.600 152.545,39.600 152.722 C 39.600 153.570,47.888 162.000,48.722 162.000 C 48.917 162.000,49.450 162.315,49.905 162.700 C 50.360 163.085,51.110 163.715,51.571 164.100 C 52.032 164.485,52.677 164.800,53.005 164.800 C 53.332 164.800,53.600 164.960,53.600 165.157 C 53.600 165.353,54.050 165.626,54.600 165.764 C 55.150 165.902,55.600 166.192,55.600 166.408 C 55.600 166.623,55.960 166.800,56.400 166.800 C 56.840 166.800,57.200 166.980,57.200 167.200 C 57.200 167.420,57.560 167.600,58.000 167.600 C 58.440 167.600,58.800 167.780,58.800 168.000 C 58.800 168.220,59.149 168.400,59.576 168.400 C 60.003 168.400,60.464 168.580,60.600 168.800 C 60.736 169.020,61.197 169.200,61.624 169.200 C 62.051 169.200,62.400 169.369,62.400 169.575 C 62.400 169.782,63.210 170.072,64.200 170.221 C 65.190 170.369,66.000 170.650,66.000 170.845 C 66.000 171.040,66.450 171.200,67.000 171.200 C 67.550 171.200,68.000 171.380,68.000 171.600 C 68.000 171.820,68.630 172.000,69.400 172.000 C 70.170 172.000,70.800 172.180,70.800 172.400 C 70.800 172.620,71.394 172.800,72.120 172.800 C 72.846 172.800,73.616 172.976,73.831 173.191 C 74.046 173.406,75.792 173.702,77.711 173.850 C 79.630 173.997,81.200 174.271,81.200 174.459 C 81.200 174.647,82.539 174.800,84.176 174.800 C 85.813 174.800,87.264 174.980,87.400 175.200 C 87.553 175.448,91.204 175.600,97.024 175.600 C 103.008 175.600,106.400 175.455,106.400 175.200 C 106.400 174.969,107.667 174.800,109.400 174.800 C 111.050 174.800,112.400 174.647,112.400 174.459 C 112.400 174.271,113.970 173.997,115.889 173.850 C 117.808 173.702,119.554 173.406,119.769 173.191 C 119.984 172.976,120.653 172.800,121.256 172.800 C 121.859 172.800,122.464 172.620,122.600 172.400 C 122.736 172.180,123.366 172.000,124.000 172.000 C 124.634 172.000,125.264 171.820,125.400 171.600 C 125.536 171.380,126.087 171.200,126.624 171.200 C 127.161 171.200,127.600 171.020,127.600 170.800 C 127.600 170.580,128.005 170.399,128.500 170.398 C 128.995 170.396,129.916 170.126,130.546 169.798 C 131.176 169.469,131.941 169.200,132.246 169.200 C 132.551 169.200,132.800 169.020,132.800 168.800 C 132.800 168.580,133.072 168.400,133.405 168.400 C 133.961 168.400,135.522 167.678,136.000 167.200 C 136.424 166.776,138.745 165.600,139.157 165.600 C 139.562 165.600,140.583 164.871,141.816 163.700 C 142.106 163.425,142.467 163.200,142.618 163.200 C 143.750 163.200,154.400 153.438,154.400 152.400 C 154.400 152.160,154.805 151.544,155.300 151.032 C 156.923 149.352,157.477 148.545,157.748 147.465 C 157.895 146.879,158.192 146.400,158.408 146.400 C 158.623 146.400,158.800 146.130,158.800 145.800 C 158.800 145.470,158.980 145.200,159.200 145.200 C 159.420 145.200,159.600 144.840,159.600 144.400 C 159.600 143.960,159.780 143.600,160.000 143.600 C 160.220 143.600,160.400 143.240,160.400 142.800 C 160.400 142.360,160.553 142.000,160.739 142.000 C 161.128 142.000,162.400 138.288,162.400 137.154 C 162.400 136.739,162.580 136.400,162.800 136.400 C 163.020 136.400,163.200 135.860,163.200 135.200 C 163.200 134.540,163.380 134.000,163.600 134.000 C 163.820 134.000,164.000 133.190,164.000 132.200 C 164.000 131.210,164.180 130.400,164.400 130.400 C 164.620 130.400,164.800 129.421,164.800 128.224 C 164.800 127.027,164.980 125.936,165.200 125.800 C 165.444 125.649,165.600 122.537,165.600 117.800 C 165.600 113.063,165.444 109.951,165.200 109.800 C 164.980 109.664,164.800 108.573,164.800 107.376 C 164.800 106.179,164.620 105.200,164.400 105.200 C 164.180 105.200,164.000 104.570,164.000 103.800 C 164.000 103.030,163.820 102.400,163.600 102.400 C 163.380 102.400,163.200 101.770,163.200 101.000 C 163.200 100.230,163.044 99.600,162.852 99.600 C 162.661 99.600,162.400 98.957,162.273 98.170 C 161.999 96.483,161.131 94.400,160.702 94.400 C 160.536 94.400,160.400 94.040,160.400 93.600 C 160.400 93.160,160.220 92.800,160.000 92.800 C 159.780 92.800,159.600 92.440,159.600 92.000 C 159.600 91.560,159.420 91.200,159.200 91.200 C 158.980 91.200,158.800 90.930,158.800 90.600 C 158.800 90.270,158.638 90.000,158.439 90.000 C 158.241 90.000,157.902 89.505,157.686 88.900 C 157.471 88.295,156.958 87.415,156.547 86.945 C 156.136 86.475,155.260 85.406,154.600 84.571 C 153.940 83.735,153.165 82.860,152.878 82.626 C 152.591 82.392,151.756 81.595,151.022 80.857 C 148.970 78.793,148.977 78.799,147.457 77.357 C 146.670 76.611,145.923 76.000,145.796 76.000 C 145.669 76.000,145.080 75.550,144.487 75.000 C 143.893 74.450,143.131 74.000,142.792 74.000 C 142.454 74.000,141.917 73.640,141.600 73.200 C 141.283 72.760,140.793 72.400,140.512 72.400 C 140.230 72.400,140.000 72.220,140.000 72.000 C 140.000 71.780,139.640 71.600,139.200 71.600 C 138.760 71.600,138.400 71.428,138.400 71.218 C 138.400 71.008,137.770 70.718,137.000 70.574 C 136.230 70.429,135.600 70.151,135.600 69.955 C 135.600 69.760,135.240 69.600,134.800 69.600 C 134.360 69.600,134.000 69.420,134.000 69.200 C 134.000 68.980,133.730 68.800,133.400 68.800 C 133.070 68.800,132.800 68.620,132.800 68.400 C 132.800 68.180,132.521 68.000,132.181 68.000 C 131.840 68.000,130.834 67.649,129.945 67.219 C 129.056 66.790,127.535 66.319,126.565 66.174 C 125.594 66.028,124.800 65.750,124.800 65.555 C 124.800 65.360,124.181 65.200,123.424 65.200 C 122.667 65.200,121.936 65.020,121.800 64.800 C 121.664 64.580,120.933 64.400,120.176 64.400 C 119.419 64.400,118.800 64.220,118.800 64.000 C 118.800 63.780,118.026 63.600,117.080 63.600 C 116.134 63.600,115.135 63.375,114.860 63.100 C 114.135 62.375,83.865 62.375,83.140 63.100 C 82.865 63.375,81.877 63.600,80.944 63.600 C 80.011 63.600,79.136 63.780,79.000 64.000 C 78.864 64.220,78.043 64.400,77.176 64.400 C 76.309 64.400,75.600 64.580,75.600 64.800 C 75.600 65.020,75.071 65.200,74.424 65.200 C 73.777 65.200,73.149 65.359,73.029 65.553 C 72.909 65.748,71.821 66.030,70.612 66.181 C 69.402 66.332,68.309 66.623,68.183 66.828 C 68.056 67.033,67.513 67.200,66.976 67.200 C 66.439 67.200,66.000 67.380,66.000 67.600 C 66.000 67.820,65.676 68.000,65.280 68.000 C 64.386 68.000,62.407 68.894,62.403 69.300 C 62.401 69.465,61.950 69.600,61.400 69.600 C 60.850 69.600,60.400 69.780,60.400 70.000 C 60.400 70.220,60.103 70.400,59.740 70.400 C 58.847 70.400,54.800 72.405,54.800 72.847 C 54.800 73.041,54.530 73.200,54.200 73.200 C 53.870 73.200,53.600 73.358,53.600 73.550 C 53.600 73.742,53.100 74.000,52.488 74.122 C 51.877 74.245,50.798 74.897,50.092 75.572 C 49.385 76.248,48.642 76.800,48.440 76.800 C 47.919 76.800,41.200 83.506,41.200 84.027 C 41.200 84.478,40.222 85.600,39.829 85.600 C 39.404 85.600,39.574 20.863,40.000 20.600 C 40.220 20.464,40.400 19.957,40.400 19.473 C 40.400 18.989,40.770 18.361,41.223 18.078 C 41.859 17.681,42.018 17.228,41.923 16.082 L 41.800 14.600 33.775 14.492 C 29.361 14.433,25.626 14.508,25.475 14.659 M261.300 14.849 C 261.025 15.130,260.800 15.774,260.800 16.280 C 260.800 16.786,260.620 17.200,260.400 17.200 C 260.180 17.200,260.000 17.639,260.000 18.176 C 260.000 18.713,259.820 19.264,259.600 19.400 C 259.380 19.536,259.200 20.087,259.200 20.624 C 259.200 21.161,259.040 21.600,258.845 21.600 C 258.650 21.600,258.370 22.406,258.222 23.391 C 258.075 24.376,257.784 25.286,257.577 25.414 C 257.370 25.542,257.200 26.087,257.200 26.624 C 257.200 27.161,257.020 27.600,256.800 27.600 C 256.580 27.600,256.400 28.050,256.400 28.600 C 256.400 29.150,256.220 29.600,256.000 29.600 C 255.780 29.600,255.600 30.039,255.600 30.576 C 255.600 31.113,255.437 31.654,255.237 31.777 C 255.038 31.900,254.751 32.901,254.600 34.000 C 254.449 35.100,254.162 36.000,253.962 36.000 C 253.763 36.000,253.600 36.540,253.600 37.200 C 253.600 37.860,253.420 38.400,253.200 38.400 C 252.980 38.400,252.800 38.672,252.800 39.005 C 252.800 39.338,252.641 39.923,252.447 40.305 C 251.318 42.524,250.000 46.461,250.000 47.614 C 250.000 48.046,249.820 48.400,249.600 48.400 C 249.380 48.400,249.200 48.850,249.200 49.400 C 249.200 49.950,249.020 50.400,248.800 50.400 C 248.580 50.400,248.400 50.762,248.400 51.205 C 248.400 51.648,248.220 52.368,248.000 52.805 C 247.780 53.242,247.423 53.952,247.208 54.383 C 246.992 54.813,246.698 55.897,246.555 56.791 C 246.412 57.686,246.139 58.514,245.947 58.632 C 245.756 58.751,245.600 59.287,245.600 59.824 C 245.600 60.361,245.420 60.800,245.200 60.800 C 244.980 60.800,244.800 61.250,244.800 61.800 C 244.800 62.350,244.620 62.800,244.400 62.800 C 244.180 62.800,244.000 63.340,244.000 64.000 C 244.000 64.660,243.865 65.200,243.700 65.200 C 243.535 65.200,243.067 66.325,242.660 67.700 C 242.253 69.075,241.758 70.513,241.560 70.895 C 241.362 71.277,241.200 71.952,241.200 72.395 C 241.200 72.838,241.020 73.200,240.800 73.200 C 240.580 73.200,240.400 73.639,240.400 74.176 C 240.400 74.713,240.220 75.264,240.000 75.400 C 239.780 75.536,239.600 76.087,239.600 76.624 C 239.600 77.161,239.440 77.600,239.245 77.600 C 239.050 77.600,238.770 78.406,238.622 79.391 C 238.475 80.376,238.184 81.286,237.977 81.414 C 237.770 81.542,237.600 82.087,237.600 82.624 C 237.600 83.161,237.420 83.600,237.200 83.600 C 236.980 83.600,236.800 84.050,236.800 84.600 C 236.800 85.150,236.620 85.600,236.400 85.600 C 236.180 85.600,236.000 86.039,236.000 86.576 C 236.000 87.113,235.820 87.664,235.600 87.800 C 235.380 87.936,235.200 88.487,235.200 89.024 C 235.200 89.561,235.033 90.000,234.829 90.000 C 234.625 90.000,234.334 90.990,234.183 92.200 C 234.032 93.410,233.749 94.400,233.554 94.400 C 233.359 94.400,233.200 94.760,233.200 95.200 C 233.200 95.640,233.020 96.000,232.800 96.000 C 232.580 96.000,232.400 96.450,232.400 97.000 C 232.400 97.550,232.220 98.000,232.000 98.000 C 231.780 98.000,231.600 98.439,231.600 98.976 C 231.600 99.513,231.437 100.054,231.237 100.177 C 231.038 100.300,230.751 101.301,230.600 102.400 C 230.449 103.500,230.162 104.400,229.962 104.400 C 229.763 104.400,229.600 104.850,229.600 105.400 C 229.600 105.950,229.420 106.400,229.200 106.400 C 228.980 106.400,228.800 106.762,228.800 107.205 C 228.800 107.648,228.641 108.323,228.447 108.705 C 227.318 110.924,226.000 114.861,226.000 116.014 C 226.000 116.446,225.820 116.800,225.600 116.800 C 225.380 116.800,225.200 117.250,225.200 117.800 C 225.200 118.350,225.020 118.800,224.800 118.800 C 224.580 118.800,224.400 119.340,224.400 120.000 C 224.400 120.660,224.220 121.200,224.000 121.200 C 223.780 121.200,223.600 121.549,223.600 121.976 C 223.600 122.403,223.430 122.858,223.223 122.986 C 223.016 123.114,222.725 124.027,222.577 125.014 C 222.429 126.002,222.148 126.908,221.954 127.029 C 221.759 127.149,221.600 127.687,221.600 128.224 C 221.600 128.761,221.420 129.200,221.200 129.200 C 220.980 129.200,220.800 129.650,220.800 130.200 C 220.800 130.750,220.620 131.200,220.400 131.200 C 220.180 131.200,220.000 131.740,220.000 132.400 C 220.000 133.060,219.820 133.600,219.600 133.600 C 219.380 133.600,219.200 134.039,219.200 134.576 C 219.200 135.113,219.036 135.654,218.835 135.778 C 218.634 135.903,218.348 136.722,218.200 137.600 C 218.052 138.478,217.766 139.297,217.565 139.422 C 217.364 139.546,217.200 140.087,217.200 140.624 C 217.200 141.161,217.020 141.600,216.800 141.600 C 216.580 141.600,216.400 142.039,216.400 142.576 C 216.400 143.113,216.220 143.664,216.000 143.800 C 215.780 143.936,215.600 144.487,215.600 145.024 C 215.600 145.561,215.437 146.000,215.238 146.000 C 215.038 146.000,214.751 146.900,214.600 148.000 C 214.449 149.099,214.162 150.100,213.963 150.223 C 213.763 150.346,213.600 150.797,213.600 151.224 C 213.600 151.651,213.420 152.000,213.200 152.000 C 212.980 152.000,212.800 152.450,212.800 153.000 C 212.800 153.550,212.620 154.000,212.400 154.000 C 212.180 154.000,212.000 154.439,212.000 154.976 C 212.000 155.513,211.820 156.064,211.600 156.200 C 211.380 156.336,211.200 156.887,211.200 157.424 C 211.200 157.961,211.037 158.400,210.838 158.400 C 210.638 158.400,210.351 159.300,210.200 160.400 C 210.049 161.500,209.762 162.400,209.562 162.400 C 209.363 162.400,209.200 162.762,209.200 163.205 C 209.200 163.648,209.041 164.323,208.847 164.705 C 208.652 165.087,208.271 165.940,208.000 166.600 C 207.729 167.260,207.363 168.089,207.187 168.441 C 207.011 168.794,206.741 169.919,206.588 170.941 C 206.435 171.964,206.150 172.800,205.955 172.800 C 205.760 172.800,205.600 173.250,205.600 173.800 C 205.600 174.350,205.420 174.800,205.200 174.800 C 204.980 174.800,204.800 175.340,204.800 176.000 C 204.800 176.660,204.620 177.200,204.400 177.200 C 204.180 177.200,204.000 177.472,204.000 177.805 C 204.000 178.138,203.826 178.723,203.613 179.105 C 203.022 180.164,202.000 183.529,202.000 184.414 C 202.000 184.846,201.820 185.200,201.600 185.200 C 201.380 185.200,201.200 185.650,201.200 186.200 C 201.200 186.750,201.020 187.200,200.800 187.200 C 200.580 187.200,200.400 187.740,200.400 188.400 C 200.400 189.060,200.220 189.600,200.000 189.600 C 199.780 189.600,199.600 189.939,199.600 190.354 C 199.600 190.769,199.331 191.624,199.002 192.254 C 198.674 192.884,198.404 193.794,198.402 194.276 C 198.401 194.758,198.220 195.264,198.000 195.400 C 197.780 195.536,197.600 196.087,197.600 196.624 C 197.600 197.161,197.420 197.600,197.200 197.600 C 196.980 197.600,196.800 198.050,196.800 198.600 C 196.800 199.150,196.620 199.600,196.400 199.600 C 196.180 199.600,196.000 200.140,196.000 200.800 C 196.000 201.460,195.820 202.000,195.600 202.000 C 195.380 202.000,195.200 202.439,195.200 202.976 C 195.200 203.513,195.036 204.054,194.835 204.178 C 194.634 204.303,194.348 205.122,194.200 206.000 C 194.052 206.878,193.766 207.697,193.565 207.822 C 193.364 207.946,193.200 208.487,193.200 209.024 C 193.200 209.561,193.020 210.000,192.800 210.000 C 192.580 210.000,192.400 210.439,192.400 210.976 C 192.400 211.513,192.220 212.064,192.000 212.200 C 191.780 212.336,191.600 212.887,191.600 213.424 C 191.600 213.961,191.437 214.400,191.238 214.400 C 191.038 214.400,190.751 215.300,190.600 216.400 C 190.449 217.500,190.162 218.400,189.962 218.400 C 189.763 218.400,189.600 218.762,189.600 219.205 C 189.600 219.648,189.441 220.323,189.247 220.705 C 189.052 221.087,188.671 221.940,188.400 222.600 C 188.129 223.260,187.748 224.113,187.553 224.495 C 187.359 224.877,187.200 225.541,187.200 225.971 C 187.200 226.401,187.030 226.858,186.823 226.986 C 186.616 227.114,186.325 228.024,186.178 229.009 C 186.030 229.994,185.750 230.800,185.555 230.800 C 185.360 230.800,185.200 231.340,185.200 232.000 C 185.200 232.660,185.020 233.200,184.800 233.200 C 184.580 233.200,184.400 233.530,184.400 233.933 C 184.400 234.337,184.281 234.786,184.135 234.932 C 183.676 235.391,182.400 239.327,182.400 240.285 C 182.400 240.788,182.220 241.200,182.000 241.200 C 181.780 241.200,181.600 241.650,181.600 242.200 C 181.600 242.750,181.420 243.200,181.200 243.200 C 180.980 243.200,180.800 243.740,180.800 244.400 C 180.800 245.060,180.620 245.600,180.400 245.600 C 180.180 245.600,180.000 246.050,180.000 246.600 C 180.000 247.150,179.860 247.600,179.689 247.600 C 179.345 247.600,178.000 251.838,178.000 252.920 C 178.000 253.294,177.820 253.600,177.600 253.600 C 177.380 253.600,177.200 254.050,177.200 254.600 C 177.200 255.150,177.020 255.600,176.800 255.600 C 176.580 255.600,176.400 256.140,176.400 256.800 C 176.400 257.460,176.220 258.000,176.000 258.000 C 175.780 258.000,175.600 258.439,175.600 258.976 C 175.600 259.513,175.436 260.054,175.235 260.178 C 175.034 260.303,174.748 261.122,174.600 262.000 C 174.452 262.878,174.166 263.697,173.965 263.822 C 173.764 263.946,173.600 264.487,173.600 265.024 C 173.600 265.561,173.420 266.000,173.200 266.000 C 172.980 266.000,172.800 266.450,172.800 267.000 C 172.800 267.550,172.620 268.000,172.400 268.000 C 172.180 268.000,172.000 268.540,172.000 269.200 C 172.000 269.860,171.820 270.400,171.600 270.400 C 171.380 270.400,171.200 270.839,171.200 271.376 C 171.200 271.913,171.030 272.458,170.823 272.586 C 170.616 272.714,170.325 273.627,170.177 274.614 C 170.029 275.602,169.748 276.508,169.554 276.629 C 169.359 276.749,169.200 277.197,169.200 277.624 C 169.200 278.051,169.020 278.400,168.800 278.400 C 168.580 278.400,168.400 278.839,168.400 279.376 C 168.400 279.913,168.220 280.464,168.000 280.600 C 167.780 280.736,167.600 281.276,167.600 281.800 C 167.600 282.324,167.430 282.858,167.223 282.986 C 167.016 283.114,166.725 284.024,166.578 285.009 C 166.430 285.994,166.150 286.800,165.955 286.800 C 165.760 286.800,165.600 287.340,165.600 288.000 C 165.600 288.660,165.420 289.200,165.200 289.200 C 164.980 289.200,164.800 289.472,164.800 289.805 C 164.800 290.138,164.641 290.723,164.447 291.105 C 163.318 293.324,162.000 297.261,162.000 298.414 C 162.000 298.846,161.820 299.200,161.600 299.200 C 161.380 299.200,161.200 299.740,161.200 300.400 C 161.200 301.060,161.020 301.600,160.800 301.600 C 160.580 301.600,160.400 302.050,160.400 302.600 C 160.400 303.150,160.260 303.600,160.089 303.600 C 159.745 303.600,158.400 307.838,158.400 308.920 C 158.400 309.294,158.220 309.600,158.000 309.600 C 157.780 309.600,157.600 310.050,157.600 310.600 C 157.600 311.150,157.420 311.600,157.200 311.600 C 156.980 311.600,156.800 312.140,156.800 312.800 C 156.800 313.460,156.620 314.000,156.400 314.000 C 156.180 314.000,156.000 314.450,156.000 315.000 C 156.000 315.550,155.820 316.000,155.600 316.000 C 155.380 316.000,155.200 316.439,155.200 316.976 C 155.200 317.513,155.030 318.058,154.823 318.186 C 154.616 318.314,154.325 319.224,154.178 320.209 C 154.030 321.194,153.750 322.000,153.555 322.000 C 153.360 322.000,153.200 322.450,153.200 323.000 C 153.200 323.550,153.020 324.000,152.800 324.000 C 152.580 324.000,152.400 324.540,152.400 325.200 C 152.400 325.860,152.220 326.400,152.000 326.400 C 151.780 326.400,151.600 326.850,151.600 327.400 C 151.600 327.950,151.440 328.400,151.245 328.400 C 151.050 328.400,150.770 329.206,150.622 330.191 C 150.475 331.176,150.184 332.086,149.977 332.214 C 149.770 332.342,149.600 332.887,149.600 333.424 C 149.600 333.961,149.420 334.400,149.200 334.400 C 148.980 334.400,148.800 334.850,148.800 335.400 C 148.800 335.950,148.620 336.400,148.400 336.400 C 148.180 336.400,148.000 336.839,148.000 337.376 C 148.000 337.913,147.820 338.464,147.600 338.600 C 147.380 338.736,147.200 339.276,147.200 339.800 C 147.200 340.324,147.025 340.861,146.812 340.993 C 146.598 341.125,146.305 342.125,146.160 343.216 C 146.015 344.307,145.740 345.200,145.548 345.200 C 145.357 345.200,145.200 345.472,145.200 345.805 C 145.200 346.138,145.041 346.723,144.847 347.105 C 144.652 347.487,144.271 348.340,144.000 349.000 C 143.729 349.660,143.363 350.489,143.187 350.841 C 143.011 351.194,142.741 352.319,142.588 353.341 C 142.435 354.364,142.150 355.200,141.955 355.200 C 141.760 355.200,141.600 355.740,141.600 356.400 C 141.600 357.060,141.420 357.600,141.200 357.600 C 140.980 357.600,140.800 357.924,140.800 358.320 C 140.800 358.716,140.651 359.211,140.470 359.420 C 140.288 359.629,139.895 360.610,139.598 361.600 C 139.300 362.590,138.916 363.589,138.745 363.820 C 138.575 364.051,138.314 364.996,138.166 365.920 C 138.019 366.844,137.741 367.600,137.549 367.600 C 137.357 367.600,137.200 368.140,137.200 368.800 C 137.200 369.460,137.020 370.000,136.800 370.000 C 136.580 370.000,136.400 370.450,136.400 371.000 C 136.400 371.550,136.220 372.000,136.000 372.000 C 135.780 372.000,135.600 372.414,135.600 372.920 C 135.600 373.426,135.406 374.034,135.169 374.271 C 133.990 375.450,134.926 376.921,137.400 377.773 C 138.720 378.228,139.860 378.735,139.933 378.900 C 140.007 379.065,140.412 379.200,140.833 379.200 C 141.255 379.200,141.600 379.380,141.600 379.600 C 141.600 379.820,141.949 380.000,142.376 380.000 C 142.803 380.000,143.264 380.180,143.400 380.400 C 143.536 380.620,143.997 380.800,144.424 380.800 C 144.851 380.800,145.200 380.972,145.200 381.182 C 145.200 381.392,145.830 381.682,146.600 381.826 C 147.370 381.971,148.000 382.249,148.000 382.445 C 148.000 382.640,148.540 382.800,149.200 382.800 C 149.860 382.800,150.400 382.980,150.400 383.200 C 150.400 383.420,150.670 383.600,151.000 383.600 C 151.330 383.600,151.600 383.780,151.600 384.000 C 151.600 384.220,151.849 384.400,152.154 384.400 C 152.459 384.400,153.224 384.669,153.854 384.998 C 155.666 385.942,156.800 385.789,156.800 384.600 C 156.800 384.050,156.969 383.600,157.175 383.600 C 157.382 383.600,157.672 382.790,157.821 381.800 C 157.969 380.810,158.250 380.000,158.445 380.000 C 158.640 380.000,158.800 379.460,158.800 378.800 C 158.800 378.140,158.980 377.600,159.200 377.600 C 159.420 377.600,159.600 377.150,159.600 376.600 C 159.600 376.050,159.780 375.600,160.000 375.600 C 160.220 375.600,160.400 375.161,160.400 374.624 C 160.400 374.087,160.580 373.536,160.800 373.400 C 161.020 373.264,161.200 372.713,161.200 372.176 C 161.200 371.639,161.360 371.200,161.555 371.200 C 161.750 371.200,162.030 370.394,162.178 369.409 C 162.325 368.424,162.616 367.514,162.823 367.386 C 163.030 367.258,163.200 366.713,163.200 366.176 C 163.200 365.639,163.380 365.200,163.600 365.200 C 163.820 365.200,164.000 364.750,164.000 364.200 C 164.000 363.650,164.180 363.200,164.400 363.200 C 164.620 363.200,164.800 362.761,164.800 362.224 C 164.800 361.687,164.963 361.146,165.163 361.023 C 165.362 360.900,165.649 359.899,165.800 358.800 C 165.951 357.700,166.238 356.800,166.438 356.800 C 166.637 356.800,166.800 356.260,166.800 355.600 C 166.800 354.940,166.980 354.400,167.200 354.400 C 167.420 354.400,167.600 354.128,167.600 353.795 C 167.600 353.462,167.759 352.877,167.953 352.495 C 169.082 350.276,170.400 346.339,170.400 345.186 C 170.400 344.754,170.580 344.400,170.800 344.400 C 171.020 344.400,171.200 343.860,171.200 343.200 C 171.200 342.540,171.380 342.000,171.600 342.000 C 171.820 342.000,172.000 341.550,172.000 341.000 C 172.000 340.450,172.140 340.000,172.311 340.000 C 172.655 340.000,174.000 335.762,174.000 334.680 C 174.000 334.306,174.180 334.000,174.400 334.000 C 174.620 334.000,174.800 333.550,174.800 333.000 C 174.800 332.450,174.980 332.000,175.200 332.000 C 175.420 332.000,175.600 331.561,175.600 331.024 C 175.600 330.487,175.780 329.936,176.000 329.800 C 176.220 329.664,176.400 329.113,176.400 328.576 C 176.400 328.039,176.580 327.600,176.800 327.600 C 177.020 327.600,177.200 327.161,177.200 326.624 C 177.200 326.087,177.370 325.542,177.577 325.414 C 177.784 325.286,178.075 324.376,178.222 323.391 C 178.370 322.406,178.650 321.600,178.845 321.600 C 179.040 321.600,179.200 321.150,179.200 320.600 C 179.200 320.050,179.380 319.600,179.600 319.600 C 179.820 319.600,180.000 319.161,180.000 318.624 C 180.000 318.087,180.180 317.536,180.400 317.400 C 180.620 317.264,180.800 316.713,180.800 316.176 C 180.800 315.639,180.967 315.200,181.171 315.200 C 181.375 315.200,181.666 314.210,181.817 313.000 C 181.968 311.790,182.251 310.800,182.446 310.800 C 182.641 310.800,182.800 310.528,182.800 310.195 C 182.800 309.862,182.959 309.277,183.153 308.895 C 183.348 308.513,183.729 307.660,184.000 307.000 C 184.271 306.340,184.652 305.487,184.847 305.105 C 185.041 304.723,185.200 304.059,185.200 303.629 C 185.200 303.199,185.375 302.739,185.588 302.607 C 185.802 302.475,186.095 301.475,186.240 300.384 C 186.385 299.293,186.660 298.400,186.852 298.400 C 187.043 298.400,187.200 297.950,187.200 297.400 C 187.200 296.850,187.380 296.400,187.600 296.400 C 187.820 296.400,188.000 296.038,188.000 295.595 C 188.000 294.819,188.139 294.439,189.130 292.517 C 189.380 292.032,189.701 290.907,189.844 290.017 C 189.986 289.128,190.259 288.400,190.451 288.400 C 190.643 288.400,190.800 287.860,190.800 287.200 C 190.800 286.540,190.980 286.000,191.200 286.000 C 191.420 286.000,191.600 285.550,191.600 285.000 C 191.600 284.450,191.780 284.000,192.000 284.000 C 192.220 284.000,192.400 283.638,192.400 283.195 C 192.400 282.752,192.608 281.987,192.862 281.495 C 193.851 279.582,193.993 279.183,194.244 277.617 C 194.386 276.728,194.659 276.000,194.851 276.000 C 195.043 276.000,195.200 275.561,195.200 275.024 C 195.200 274.487,195.380 273.936,195.600 273.800 C 195.820 273.664,196.000 273.113,196.000 272.576 C 196.000 272.039,196.180 271.600,196.400 271.600 C 196.620 271.600,196.800 271.161,196.800 270.624 C 196.800 270.087,196.956 269.551,197.147 269.432 C 197.339 269.314,197.612 268.486,197.755 267.591 C 197.898 266.697,198.171 265.658,198.361 265.283 C 198.551 264.907,198.929 264.060,199.200 263.400 C 199.471 262.740,199.852 261.887,200.047 261.505 C 200.241 261.123,200.400 260.448,200.400 260.005 C 200.400 259.562,200.580 259.200,200.800 259.200 C 201.020 259.200,201.200 258.761,201.200 258.224 C 201.200 257.687,201.363 257.146,201.563 257.023 C 201.762 256.900,202.049 255.899,202.200 254.800 C 202.351 253.700,202.638 252.800,202.838 252.800 C 203.037 252.800,203.200 252.260,203.200 251.600 C 203.200 250.940,203.380 250.400,203.600 250.400 C 203.820 250.400,204.000 250.128,204.000 249.795 C 204.000 249.462,204.180 248.832,204.400 248.395 C 204.620 247.958,204.984 247.236,205.209 246.791 C 205.434 246.346,205.728 245.176,205.863 244.191 C 205.998 243.206,206.264 242.400,206.454 242.400 C 206.644 242.400,206.800 241.950,206.800 241.400 C 206.800 240.850,206.980 240.400,207.200 240.400 C 207.420 240.400,207.600 239.860,207.600 239.200 C 207.600 238.540,207.780 238.000,208.000 238.000 C 208.220 238.000,208.400 237.565,208.400 237.033 C 208.400 236.502,208.535 236.007,208.700 235.933 C 209.129 235.743,210.404 231.970,210.402 230.900 C 210.401 230.405,210.580 230.000,210.800 230.000 C 211.020 230.000,211.200 229.550,211.200 229.000 C 211.200 228.450,211.380 228.000,211.600 228.000 C 211.820 228.000,212.000 227.561,212.000 227.024 C 212.000 226.487,212.180 225.936,212.400 225.800 C 212.620 225.664,212.800 225.113,212.800 224.576 C 212.800 224.039,212.960 223.600,213.155 223.600 C 213.350 223.600,213.630 222.794,213.778 221.809 C 213.925 220.824,214.216 219.914,214.423 219.786 C 214.630 219.658,214.800 219.113,214.800 218.576 C 214.800 218.039,214.980 217.600,215.200 217.600 C 215.420 217.600,215.600 217.150,215.600 216.600 C 215.600 216.050,215.780 215.600,216.000 215.600 C 216.220 215.600,216.400 215.161,216.400 214.624 C 216.400 214.087,216.580 213.536,216.800 213.400 C 217.020 213.264,217.200 212.724,217.200 212.200 C 217.200 211.676,217.375 211.139,217.588 211.007 C 217.802 210.875,218.095 209.875,218.240 208.784 C 218.385 207.693,218.660 206.800,218.852 206.800 C 219.043 206.800,219.200 206.528,219.200 206.195 C 219.200 205.862,219.359 205.277,219.553 204.895 C 219.748 204.513,220.129 203.660,220.400 203.000 C 220.671 202.340,221.037 201.511,221.213 201.159 C 221.389 200.806,221.659 199.681,221.812 198.659 C 221.965 197.636,222.250 196.800,222.445 196.800 C 222.640 196.800,222.800 196.260,222.800 195.600 C 222.800 194.940,222.980 194.400,223.200 194.400 C 223.420 194.400,223.600 193.950,223.600 193.400 C 223.600 192.850,223.780 192.400,224.000 192.400 C 224.220 192.400,224.400 192.038,224.400 191.595 C 224.400 191.152,224.580 190.432,224.800 189.995 C 225.020 189.558,225.377 188.848,225.592 188.417 C 225.808 187.987,226.101 186.907,226.244 186.017 C 226.386 185.128,226.659 184.400,226.851 184.400 C 227.043 184.400,227.200 183.860,227.200 183.200 C 227.200 182.540,227.380 182.000,227.600 182.000 C 227.820 182.000,228.000 181.550,228.000 181.000 C 228.000 180.450,228.180 180.000,228.400 180.000 C 228.620 180.000,228.800 179.561,228.800 179.024 C 228.800 178.487,228.970 177.942,229.177 177.814 C 229.384 177.686,229.675 176.776,229.822 175.791 C 229.970 174.806,230.250 174.000,230.445 174.000 C 230.640 174.000,230.800 173.550,230.800 173.000 C 230.800 172.450,230.980 172.000,231.200 172.000 C 231.420 172.000,231.600 171.561,231.600 171.024 C 231.600 170.487,231.780 169.936,232.000 169.800 C 232.220 169.664,232.400 169.113,232.400 168.576 C 232.400 168.039,232.580 167.600,232.800 167.600 C 233.020 167.600,233.200 167.161,233.200 166.624 C 233.200 166.087,233.356 165.551,233.547 165.432 C 233.739 165.314,234.012 164.486,234.155 163.591 C 234.298 162.697,234.571 161.658,234.761 161.283 C 234.951 160.907,235.329 160.060,235.600 159.400 C 235.871 158.740,236.252 157.887,236.447 157.505 C 236.641 157.123,236.800 156.459,236.800 156.029 C 236.800 155.599,236.975 155.139,237.188 155.007 C 237.402 154.875,237.695 153.875,237.840 152.784 C 237.985 151.693,238.260 150.800,238.452 150.800 C 238.643 150.800,238.800 150.350,238.800 149.800 C 238.800 149.250,238.980 148.800,239.200 148.800 C 239.420 148.800,239.600 148.438,239.600 147.995 C 239.600 147.552,239.759 146.877,239.953 146.495 C 241.110 144.221,242.400 140.476,242.400 139.392 C 242.400 138.846,242.580 138.400,242.800 138.400 C 243.020 138.400,243.200 137.950,243.200 137.400 C 243.200 136.850,243.380 136.400,243.600 136.400 C 243.820 136.400,244.000 135.860,244.000 135.200 C 244.000 134.540,244.180 134.000,244.400 134.000 C 244.620 134.000,244.800 133.550,244.800 133.000 C 244.800 132.450,244.969 132.000,245.175 132.000 C 245.382 132.000,245.672 131.190,245.821 130.200 C 245.969 129.210,246.250 128.400,246.445 128.400 C 246.640 128.400,246.800 127.860,246.800 127.200 C 246.800 126.540,246.980 126.000,247.200 126.000 C 247.420 126.000,247.600 125.550,247.600 125.000 C 247.600 124.450,247.780 124.000,248.000 124.000 C 248.220 124.000,248.400 123.561,248.400 123.024 C 248.400 122.487,248.580 121.936,248.800 121.800 C 249.020 121.664,249.200 121.113,249.200 120.576 C 249.200 120.039,249.360 119.600,249.555 119.600 C 249.750 119.600,250.030 118.794,250.178 117.809 C 250.325 116.824,250.616 115.914,250.823 115.786 C 251.030 115.658,251.200 115.113,251.200 114.576 C 251.200 114.039,251.380 113.600,251.600 113.600 C 251.820 113.600,252.000 113.150,252.000 112.600 C 252.000 112.050,252.180 111.600,252.400 111.600 C 252.620 111.600,252.800 111.161,252.800 110.624 C 252.800 110.087,252.963 109.546,253.163 109.423 C 253.362 109.300,253.649 108.299,253.800 107.200 C 253.951 106.100,254.238 105.200,254.438 105.200 C 254.637 105.200,254.800 104.838,254.800 104.395 C 254.800 103.952,254.959 103.277,255.153 102.895 C 255.348 102.513,255.684 101.750,255.900 101.200 C 256.116 100.650,256.488 99.750,256.726 99.200 C 257.497 97.421,258.400 94.393,258.400 93.586 C 258.400 93.154,258.580 92.800,258.800 92.800 C 259.020 92.800,259.200 92.260,259.200 91.600 C 259.200 90.940,259.380 90.400,259.600 90.400 C 259.820 90.400,260.000 89.965,260.000 89.433 C 260.000 88.902,260.135 88.407,260.300 88.333 C 260.729 88.143,262.004 84.370,262.002 83.300 C 262.001 82.805,262.180 82.400,262.400 82.400 C 262.620 82.400,262.800 81.950,262.800 81.400 C 262.800 80.850,262.980 80.400,263.200 80.400 C 263.420 80.400,263.600 79.860,263.600 79.200 C 263.600 78.540,263.780 78.000,264.000 78.000 C 264.220 78.000,264.400 77.550,264.400 77.000 C 264.400 76.450,264.580 76.000,264.800 76.000 C 265.020 76.000,265.200 75.561,265.200 75.024 C 265.200 74.487,265.370 73.942,265.577 73.814 C 265.784 73.686,266.075 72.776,266.222 71.791 C 266.370 70.806,266.650 70.000,266.845 70.000 C 267.040 70.000,267.200 69.550,267.200 69.000 C 267.200 68.450,267.380 68.000,267.600 68.000 C 267.820 68.000,268.000 67.561,268.000 67.024 C 268.000 66.487,268.180 65.936,268.400 65.800 C 268.620 65.664,268.800 65.113,268.800 64.576 C 268.800 64.039,268.967 63.600,269.171 63.600 C 269.375 63.600,269.666 62.610,269.817 61.400 C 269.968 60.190,270.251 59.200,270.446 59.200 C 270.641 59.200,270.800 58.928,270.800 58.595 C 270.800 58.262,270.959 57.677,271.153 57.295 C 271.348 56.913,271.729 56.060,272.000 55.400 C 272.271 54.740,272.652 53.887,272.847 53.505 C 273.041 53.123,273.200 52.459,273.200 52.029 C 273.200 51.599,273.375 51.139,273.588 51.007 C 273.802 50.875,274.095 49.875,274.240 48.784 C 274.385 47.693,274.660 46.800,274.852 46.800 C 275.043 46.800,275.200 46.350,275.200 45.800 C 275.200 45.250,275.347 44.800,275.528 44.800 C 275.708 44.800,276.104 43.889,276.407 42.775 C 276.710 41.661,277.092 40.667,277.256 40.565 C 277.420 40.464,277.675 39.576,277.822 38.591 C 277.970 37.606,278.250 36.800,278.445 36.800 C 278.640 36.800,278.800 36.260,278.800 35.600 C 278.800 34.940,278.980 34.400,279.200 34.400 C 279.420 34.400,279.600 33.950,279.600 33.400 C 279.600 32.850,279.780 32.400,280.000 32.400 C 280.220 32.400,280.400 31.860,280.400 31.200 C 280.400 30.540,280.580 30.000,280.800 30.000 C 281.020 30.000,281.200 29.676,281.200 29.280 C 281.200 28.884,281.390 28.370,281.623 28.137 C 282.761 26.999,282.571 23.244,281.355 22.811 C 280.720 22.585,279.887 22.220,279.505 22.000 C 279.123 21.780,278.538 21.600,278.205 21.600 C 277.872 21.600,277.600 21.420,277.600 21.200 C 277.600 20.980,277.240 20.800,276.800 20.800 C 276.360 20.800,276.000 20.620,276.000 20.400 C 276.000 20.180,275.640 20.000,275.200 20.000 C 274.760 20.000,274.400 19.862,274.400 19.694 C 274.400 19.331,271.439 18.000,270.631 18.000 C 270.320 18.000,270.007 17.864,269.933 17.698 C 269.320 16.311,262.177 13.954,261.300 14.849 M106.800 74.800 C 106.800 75.020,107.689 75.200,108.776 75.200 C 109.863 75.200,110.864 75.380,111.000 75.600 C 111.136 75.820,111.869 76.000,112.629 76.000 C 113.389 76.000,114.323 76.163,114.705 76.363 C 115.742 76.905,119.582 78.000,120.446 78.000 C 120.861 78.000,121.200 78.180,121.200 78.400 C 121.200 78.620,121.650 78.800,122.200 78.800 C 122.750 78.800,123.200 78.980,123.200 79.200 C 123.200 79.420,123.560 79.600,124.000 79.600 C 124.440 79.600,124.800 79.780,124.800 80.000 C 124.800 80.220,125.022 80.400,125.294 80.400 C 125.922 80.400,130.156 82.500,130.333 82.900 C 130.407 83.065,130.688 83.200,130.958 83.200 C 131.228 83.200,131.798 83.516,132.225 83.903 C 132.651 84.290,133.500 84.927,134.110 85.319 C 136.965 87.152,143.206 93.498,144.114 95.491 C 144.342 95.991,144.680 96.400,144.864 96.400 C 145.049 96.400,145.200 96.593,145.200 96.829 C 145.200 97.064,145.470 97.527,145.800 97.857 C 146.130 98.187,146.400 98.804,146.400 99.229 C 146.400 99.653,146.580 100.000,146.800 100.000 C 147.020 100.000,147.200 100.349,147.200 100.776 C 147.200 101.203,147.380 101.664,147.600 101.800 C 147.820 101.936,148.000 102.397,148.000 102.824 C 148.000 103.251,148.180 103.600,148.400 103.600 C 148.620 103.600,148.800 104.039,148.800 104.576 C 148.800 105.113,148.980 105.664,149.200 105.800 C 149.420 105.936,149.600 106.652,149.600 107.390 C 149.600 108.129,149.825 108.808,150.100 108.900 C 150.482 109.027,150.600 111.409,150.600 119.000 C 150.600 126.591,150.482 128.973,150.100 129.100 C 149.825 129.192,149.600 129.882,149.600 130.633 C 149.600 131.385,149.420 132.000,149.200 132.000 C 148.980 132.000,148.800 132.540,148.800 133.200 C 148.800 133.860,148.620 134.400,148.400 134.400 C 148.180 134.400,148.000 134.850,148.000 135.400 C 148.000 135.950,147.820 136.400,147.600 136.400 C 147.380 136.400,147.200 136.749,147.200 137.176 C 147.200 137.603,147.034 138.055,146.831 138.181 C 146.628 138.306,146.343 138.947,146.199 139.605 C 146.055 140.262,145.771 140.800,145.568 140.800 C 145.366 140.800,145.200 141.117,145.200 141.504 C 145.200 141.891,144.840 142.432,144.400 142.707 C 143.960 142.982,143.600 143.398,143.600 143.632 C 143.600 144.120,143.519 144.213,139.924 147.875 C 138.452 149.374,136.754 150.960,136.151 151.400 C 135.549 151.840,134.646 152.605,134.146 153.100 C 133.646 153.595,132.980 154.000,132.667 154.000 C 132.354 154.000,131.874 154.270,131.600 154.600 C 131.326 154.930,130.854 155.200,130.551 155.200 C 130.248 155.200,130.000 155.380,130.000 155.600 C 130.000 155.820,129.640 156.000,129.200 156.000 C 128.760 156.000,128.400 156.180,128.400 156.400 C 128.400 156.620,128.040 156.800,127.600 156.800 C 127.160 156.800,126.800 156.980,126.800 157.200 C 126.800 157.420,126.451 157.600,126.024 157.600 C 125.597 157.600,125.142 157.770,125.014 157.977 C 124.886 158.184,123.976 158.475,122.991 158.622 C 122.006 158.770,121.200 159.050,121.200 159.245 C 121.200 159.440,120.660 159.600,120.000 159.600 C 119.340 159.600,118.800 159.780,118.800 160.000 C 118.800 160.220,118.170 160.400,117.400 160.400 C 116.630 160.400,116.000 160.580,116.000 160.800 C 116.000 161.020,115.458 161.200,114.795 161.200 C 114.132 161.200,113.277 161.378,112.895 161.596 C 110.029 163.232,80.807 163.228,77.905 161.592 C 77.523 161.376,76.578 161.200,75.805 161.200 C 75.032 161.200,74.400 161.020,74.400 160.800 C 74.400 160.580,73.770 160.400,73.000 160.400 C 72.230 160.400,71.600 160.220,71.600 160.000 C 71.600 159.780,71.071 159.600,70.424 159.600 C 69.777 159.600,69.142 159.430,69.014 159.223 C 68.886 159.016,67.976 158.725,66.991 158.578 C 66.006 158.430,65.200 158.150,65.200 157.955 C 65.200 157.760,64.840 157.600,64.400 157.600 C 63.960 157.600,63.600 157.420,63.600 157.200 C 63.600 156.980,63.335 156.800,63.011 156.800 C 62.687 156.800,61.652 156.341,60.711 155.779 C 59.770 155.218,58.505 154.549,57.900 154.292 C 57.295 154.035,56.800 153.684,56.800 153.512 C 56.800 153.341,56.618 153.200,56.396 153.200 C 56.174 153.200,55.428 152.660,54.737 152.000 C 54.046 151.340,53.328 150.800,53.140 150.800 C 52.710 150.800,49.828 147.850,48.451 146.000 C 47.878 145.230,47.134 144.330,46.797 144.000 C 46.460 143.670,45.828 142.637,45.393 141.705 C 44.957 140.772,44.465 140.007,44.300 140.005 C 44.135 140.002,44.000 139.640,44.000 139.200 C 44.000 138.760,43.820 138.400,43.600 138.400 C 43.380 138.400,43.200 137.950,43.200 137.400 C 43.200 136.850,43.044 136.400,42.853 136.400 C 42.502 136.400,41.712 133.452,41.326 130.700 C 41.211 129.875,40.955 129.200,40.758 129.200 C 40.561 129.200,40.400 127.951,40.400 126.424 C 40.400 124.897,40.220 123.536,40.000 123.400 C 39.474 123.075,39.474 114.925,40.000 114.600 C 40.220 114.464,40.400 113.294,40.400 112.000 C 40.400 110.706,40.580 109.536,40.800 109.400 C 41.020 109.264,41.200 108.544,41.200 107.800 C 41.200 107.056,41.375 106.339,41.588 106.207 C 41.802 106.075,42.095 105.075,42.240 103.984 C 42.385 102.893,42.660 102.000,42.852 102.000 C 43.043 102.000,43.200 101.730,43.200 101.400 C 43.200 101.070,43.380 100.800,43.600 100.800 C 43.820 100.800,44.000 100.440,44.000 100.000 C 44.000 99.560,44.138 99.200,44.306 99.200 C 44.474 99.200,44.921 98.485,45.299 97.612 C 45.979 96.043,46.447 95.379,48.400 93.209 C 48.950 92.598,49.775 91.671,50.233 91.149 C 50.691 90.627,51.726 89.611,52.533 88.890 C 53.340 88.170,54.000 87.435,54.000 87.258 C 54.000 87.080,54.495 86.683,55.100 86.376 C 56.457 85.685,58.953 83.906,59.133 83.500 C 59.207 83.335,59.597 83.200,60.000 83.200 C 60.403 83.200,60.793 83.065,60.867 82.900 C 61.044 82.500,65.278 80.400,65.906 80.400 C 66.178 80.400,66.400 80.220,66.400 80.000 C 66.400 79.780,66.749 79.600,67.176 79.600 C 67.603 79.600,68.064 79.420,68.200 79.200 C 68.336 78.980,68.797 78.800,69.224 78.800 C 69.651 78.800,70.000 78.638,70.000 78.439 C 70.000 78.241,71.080 77.953,72.401 77.800 C 73.721 77.647,74.902 77.359,75.024 77.161 C 75.147 76.962,75.867 76.800,76.624 76.800 C 77.381 76.800,78.000 76.620,78.000 76.400 C 78.000 76.180,78.810 76.000,79.800 76.000 C 80.790 76.000,81.600 75.820,81.600 75.600 C 81.600 75.378,82.659 75.200,83.976 75.200 C 85.283 75.200,86.464 75.020,86.600 74.800 C 86.754 74.551,90.604 74.400,96.824 74.400 C 103.208 74.400,106.800 74.544,106.800 74.800 " stroke="none" fill="#e48c04" fill-rule="evenodd"></path></g></svg>